<svg width="300" height="300" viewBox="0 0 300 300" fill="none" xmlns="http://www.w3.org/2000/svg">
<path d="M149.916 55.6302C149.916 55.6302 65.6246 55.6303 44.4685 61.1276C33.1408 64.2927 23.8133 73.6203 20.6482 85.1146C15.1509 106.271 15.1508 150.083 15.1508 150.083C15.1508 150.083 15.1509 194.062 20.6482 214.885C23.8133 226.38 32.9742 235.541 44.4685 238.706C65.7912 244.37 149.916 244.37 149.916 244.37C149.916 244.37 234.375 244.37 255.531 238.872C267.025 235.707 276.186 226.713 279.185 215.052C284.849 194.062 284.849 150.25 284.849 150.25C284.849 150.25 285.015 106.271 279.185 85.1146C276.186 73.6203 267.025 64.4595 255.531 61.4609C234.375 55.6305 149.916 55.6302 149.916 55.6302Z" fill="#FF0000"/>
<g clip-path="url(#clip0_1_16)">
<path d="M140.703 210C138.37 210 136.57 207.933 136.903 205.6L142.903 163.333H119.57C113.703 163.333 117.37 158.333 117.503 158.133C125.903 143.267 138.503 121.267 155.17 91.9333C155.837 90.7333 157.17 90 158.503 90C160.837 90 162.637 92.0667 162.303 94.4L156.303 136.667H179.703C182.37 136.667 183.837 137.933 182.37 141.067C160.437 179.333 147.703 201.667 144.037 208.067C143.37 209.267 142.103 210 140.703 210Z" fill="white"/>
</g>
<defs>
<clipPath id="clip0_1_16">
<rect width="160" height="160" fill="white" transform="translate(70 70)"/>
</clipPath>
</defs>
</svg>
